<svg width="103" height="75" viewBox="0 0 103 75" fill="none" xmlns="http://www.w3.org/2000/svg">
<path d="M102.5 0.145752C89.6225 8.82826 88.2519 15.1296 87.1362 17.0572C86.0684 19.0334 85.2716 26.825 83.4228 30.5993C81.5581 34.4222 74.7847 37.4352 72.8881 38.6987C71.0234 39.9622 68.3778 44.8704 66.2103 49.0982C48.9819 48.3855 39.5309 55.3833 24.9003 64.2602C29.5859 62.6889 31.8012 61.555 31.8012 61.555C46.8144 55.7235 54.0022 50.4913 76.6016 53.5853C76.7769 53.5853 76.9044 53.6825 77.0478 53.7149C77.6694 54.0712 77.8925 54.8326 77.5419 55.4643L68.9516 70.9827C68.5531 71.744 67.7084 72.149 66.8637 71.9708C46.655 68.1155 30.7016 74.7732 16.0391 74.9838C4.34094 75.1619 0.5 69.5572 0.5 69.298C0.5 69.1198 0.595625 69.0226 0.770938 69.0226C0.770938 69.0226 6.875 69.0226 17.2025 66.5442C28.9325 43.8175 39.3875 35.8639 50.7669 35.8639C50.7669 35.8639 62.1941 35.8639 65.2062 45.8909C68.84 39.46 69.7166 37.9211 69.7166 37.9211C70.5612 36.3985 75.2947 25.4157 83.4866 15.0162C91.6944 4.64899 97.8941 2.0734 102.5 0.145752V0.145752Z" fill="#737373"/>
</svg>
