<svg width="22" height="25" viewBox="0 0 22 25" fill="none" xmlns="http://www.w3.org/2000/svg">
<g clip-path="url(#clip0_964_17688)">
<path d="M10.9999 15.275C13.8953 15.275 16.2499 13.1222 16.2499 10.475C16.2499 7.82785 13.8953 5.67505 10.9999 5.67505C8.1046 5.67505 5.75 7.82785 5.75 10.475C5.75 13.1222 8.1046 15.275 10.9999 15.275ZM10.9999 8.07505C12.4476 8.07505 13.6249 9.15145 13.6249 10.475C13.6249 11.7986 12.4476 12.875 10.9999 12.875C9.55227 12.875 8.37497 11.7986 8.37497 10.475C8.37497 9.15145 9.55227 8.07505 10.9999 8.07505Z" fill="#8EC2F2"/>
<path d="M10.2388 24.6518C10.4609 24.7968 10.727 24.8748 11 24.8748C11.273 24.8748 11.5391 24.7968 11.7612 24.6518C12.1602 24.3938 21.5379 18.203 21.4999 10.475C21.4999 5.1818 16.7894 0.875 11 0.875C5.21063 0.875 0.500116 5.1818 0.500116 10.469C0.462053 18.203 9.83976 24.3938 10.2388 24.6518ZM11 3.275C15.343 3.275 18.8749 6.5042 18.8749 10.481C18.9025 15.8066 13.1157 20.5886 11 22.157C8.88559 20.5874 3.09752 15.8042 3.12509 10.475C3.12509 6.5042 6.65698 3.275 11 3.275Z" fill="#8EC2F2"/>
</g>
<defs>
<clipPath id="clip0_964_17688">
<rect width="21" height="24" fill="white" transform="translate(0.5 0.875)"/>
</clipPath>
</defs>
</svg>
