<svg width="24" height="25" viewBox="0 0 24 25" fill="none" xmlns="http://www.w3.org/2000/svg">
<g clip-path="url(#clip0_964_17693)">
<path d="M23.71 1.36345C23.575 1.23449 23.4045 1.14521 23.2185 1.1061C23.0325 1.06698 22.8387 1.07966 22.66 1.14265L0.660001 8.82265C0.470269 8.89173 0.306921 9.0146 0.191652 9.17492C0.0763829 9.33525 0.0146484 9.52544 0.0146484 9.72025C0.0146484 9.91505 0.0763829 10.1052 0.191652 10.2656C0.306921 10.4259 0.470269 10.5488 0.660001 10.6178L10.26 14.3042L14.1 23.5202C14.1721 23.6944 14.2958 23.8444 14.4557 23.9519C14.6157 24.0594 14.8049 24.1196 15 24.125C15.2021 24.1211 15.3982 24.0584 15.5624 23.9453C15.7266 23.8322 15.8513 23.6739 15.92 23.4914L23.92 2.37145C23.9881 2.2016 24.0046 2.01666 23.9674 1.83819C23.9302 1.65972 23.8409 1.49507 23.71 1.36345V1.36345ZM15 20.477L12.21 13.757L17 9.15865L15.59 7.80505L10.76 12.4418L3.8 9.72505L21.33 3.64825L15 20.477Z" fill="#8EC2F2"/>
</g>
<defs>
<clipPath id="clip0_964_17693">
<rect width="24" height="24" fill="white" transform="translate(0 0.125)"/>
</clipPath>
</defs>
</svg>
